<svg width="100" height="100" viewBox="0 0 100 100" fill="none" xmlns="http://www.w3.org/2000/svg">
<path d="M80.9272 39.5516L78.5787 60.9618C77.7086 68.7946 74.7347 76.2459 69.9724 82.5254C65.2101 88.8048 58.837 93.6782 51.529 96.6286C50.2883 97.1238 48.9048 97.1238 47.6641 96.6286C40.3566 93.6778 33.984 88.8043 29.2222 82.5249C24.4603 76.2455 21.4868 68.7943 20.6169 60.9618L18.2659 39.5516H80.9272ZM54.8175 3C51.3923 7.50055 49.5562 13.0098 49.5966 18.6653L54.8175 3Z" fill="black"/>
<path d="M54.8175 3C51.3923 7.50055 49.5562 13.0098 49.5966 18.6653M80.9272 39.5516L78.5787 60.9618C77.7086 68.7946 74.7347 76.2459 69.9724 82.5254C65.2101 88.8048 58.837 93.6782 51.529 96.6286C50.2883 97.1238 48.9048 97.1238 47.6641 96.6286C40.3566 93.6778 33.984 88.8043 29.2222 82.5249C24.4603 76.2455 21.4868 68.7944 20.6169 60.9618L18.2659 39.5516H80.9272Z" stroke="black" stroke-width="4" stroke-linecap="round" stroke-linejoin="round"/>
<path d="M28.1133 14.9058H71.0803C75.3539 14.9058 79.4523 16.8864 82.4742 20.4119C85.496 23.9374 87.1936 28.7191 87.1936 33.7049C87.1936 35.3666 86.6278 36.9602 85.6207 38.1352C84.6136 39.3102 83.2477 39.9703 81.8234 39.9703H17.3702C15.946 39.9703 14.58 39.3102 13.5729 38.1352C12.5658 36.9602 12 35.3666 12 33.7049C12 28.7191 13.6976 23.9374 16.7195 20.4119C19.7413 16.8864 23.8398 14.9058 28.1133 14.9058Z" fill="black" stroke="black" stroke-width="4" stroke-linecap="round" stroke-linejoin="round"/>
</svg>
