<svg width="47" height="36" viewBox="0 0 47 36" fill="none" xmlns="http://www.w3.org/2000/svg">
<mask id="mask0_44_8" style="mask-type:luminance" maskUnits="userSpaceOnUse" x="-1" y="0" width="48" height="36">
<path d="M23.3525 34C32.1895 34 39.3525 26.837 39.3525 18C39.3525 9.163 32.1895 2 23.3525 2C14.5155 2 7.35254 9.163 7.35254 18C7.35254 26.837 14.5155 34 23.3525 34Z" fill="#555555" stroke="white" stroke-width="4" stroke-linejoin="round"/>
<path d="M36.9164 9.50999C41.1364 9.87799 44.0314 11.172 44.6024 13.306C45.7464 17.574 37.1594 23.583 25.4224 26.727C13.6864 29.872 3.24543 28.962 2.10243 24.694C1.50243 22.458 3.57443 19.744 7.37143 17.214" stroke="white" stroke-width="4" stroke-linecap="round" stroke-linejoin="round"/>
</mask>
<g mask="url(#mask0_44_8)">
<path d="M-0.647461 -6H47.3525V42H-0.647461V-6Z" fill="#222222"/>
</g>
</svg>
